<svg width="18" height="18" viewBox="0 0 18 18" fill="none" xmlns="http://www.w3.org/2000/svg">
<path fill-rule="evenodd" clip-rule="evenodd" d="M12.5 11.3671H11.71L11.43 11.0971C12.41 9.95706 13 8.47707 13 6.86707C13 3.27707 10.09 0.367065 6.5 0.367065C2.91 0.367065 0 3.27707 0 6.86707C0 10.4571 2.91 13.3671 6.5 13.3671C8.11 13.3671 9.59 12.7771 10.73 11.7971L11 12.0771V12.8671L16 17.8571L17.49 16.3671L12.5 11.3671ZM6.5 11.3671C4.01 11.3671 2 9.35707 2 6.86707C2 4.37707 4.01 2.36707 6.5 2.36707C8.99 2.36707 11 4.37707 11 6.86707C11 9.35707 8.99 11.3671 6.5 11.3671Z" fill="white"/>
</svg>
