<svg width="147" height="81" viewBox="0 0 147 81" fill="none" xmlns="http://www.w3.org/2000/svg">
<rect x="0.5" y="0.787964" width="145.5" height="79" rx="3.5" stroke="white"/>
<path d="M85.2835 22.4471H84.424L78.5802 17.4733C78.258 17.1992 77.8494 16.9779 77.3847 16.8258C76.9199 16.6738 76.4109 16.5948 75.8952 16.5947H64.4038C62.9979 16.5947 61.7339 17.1774 61.2117 18.0662L58.6379 22.5297C57.1574 22.7909 56.0593 23.6984 56.0593 24.788V28.8847C56.0593 29.208 56.444 29.4699 56.9189 29.4699H59.4975C59.4975 31.4092 61.8064 32.9813 64.6547 32.9813C67.503 32.9813 69.8119 31.4092 69.8119 29.4699H76.6881C76.6881 31.4092 78.9971 32.9813 81.8454 32.9813C84.6936 32.9813 87.0026 31.4092 87.0026 29.4699H89.5812C90.0561 29.4699 90.4407 29.208 90.4407 28.8847V25.9585C90.4407 24.0192 88.1318 22.4471 85.2835 22.4471ZM64.6547 31.2256C63.2327 31.2256 62.0761 30.4381 62.0761 29.4699C62.0761 28.5017 63.2327 27.7142 64.6547 27.7142C66.0767 27.7142 67.2333 28.5017 67.2333 29.4699C67.2333 30.4381 66.0767 31.2256 64.6547 31.2256ZM68.5226 22.4471H62.3409L64.4038 18.9357H68.5226V22.4471ZM71.1012 22.4471V18.9357H75.8952L80.021 22.4471H71.1012ZM81.8454 31.2256C80.4234 31.2256 79.2668 30.4381 79.2668 29.4699C79.2668 28.5017 80.4234 27.7142 81.8454 27.7142C83.2673 27.7142 84.424 28.5017 84.424 29.4699C84.424 30.4381 83.2673 31.2256 81.8454 31.2256Z" fill="#FBA403"/>
<path d="M60.2139 59.2723C60.2139 59.0399 60.1774 58.8348 60.1045 58.6571C60.0361 58.4748 59.9131 58.3108 59.7354 58.1649C59.5622 58.0191 59.3206 57.8801 59.0107 57.7479C58.7054 57.6158 58.318 57.4813 57.8486 57.3446C57.3564 57.1988 56.9121 57.037 56.5156 56.8593C56.1191 56.677 55.7796 56.4696 55.4971 56.2372C55.2145 56.0048 54.998 55.7382 54.8477 55.4374C54.6973 55.1366 54.6221 54.7925 54.6221 54.4052C54.6221 54.0178 54.7018 53.66 54.8613 53.3319C55.0208 53.0038 55.2487 52.719 55.5449 52.4774C55.8457 52.2313 56.2035 52.0399 56.6182 51.9032C57.0329 51.7665 57.4954 51.6981 58.0059 51.6981C58.7533 51.6981 59.3867 51.8417 59.9062 52.1288C60.4303 52.4113 60.8291 52.7828 61.1025 53.243C61.376 53.6988 61.5127 54.1864 61.5127 54.7059H60.2002C60.2002 54.3322 60.1204 54.0018 59.9609 53.7147C59.8014 53.4231 59.5599 53.1952 59.2363 53.0311C58.9128 52.8625 58.5026 52.7782 58.0059 52.7782C57.5365 52.7782 57.1491 52.8488 56.8438 52.9901C56.5384 53.1314 56.3105 53.3228 56.1602 53.5643C56.0143 53.8059 55.9414 54.0816 55.9414 54.3915C55.9414 54.6011 55.9847 54.7925 56.0713 54.9657C56.1624 55.1343 56.3014 55.2915 56.4883 55.4374C56.6797 55.5832 56.9212 55.7177 57.2129 55.8407C57.5091 55.9637 57.8623 56.0822 58.2725 56.1962C58.8376 56.3557 59.3252 56.5334 59.7354 56.7294C60.1455 56.9253 60.4827 57.1464 60.7471 57.3925C61.016 57.634 61.2142 57.9097 61.3418 58.2196C61.474 58.5249 61.54 58.8713 61.54 59.2587C61.54 59.6643 61.458 60.0311 61.2939 60.3593C61.1299 60.6874 60.8952 60.9677 60.5898 61.2001C60.2845 61.4325 59.9176 61.6125 59.4893 61.7401C59.0654 61.8632 58.5915 61.9247 58.0674 61.9247C57.6071 61.9247 57.1536 61.8609 56.707 61.7333C56.265 61.6057 55.8617 61.4143 55.4971 61.1591C55.137 60.9038 54.8477 60.5894 54.6289 60.2157C54.4147 59.8374 54.3076 59.3999 54.3076 58.9032H55.6201C55.6201 59.245 55.6862 59.5389 55.8184 59.785C55.9505 60.0266 56.1305 60.2271 56.3584 60.3866C56.5908 60.5461 56.8529 60.6646 57.1445 60.7421C57.4408 60.815 57.7484 60.8514 58.0674 60.8514C58.5277 60.8514 58.9173 60.7876 59.2363 60.66C59.5553 60.5324 59.7969 60.3501 59.9609 60.1132C60.1296 59.8762 60.2139 59.5959 60.2139 59.2723ZM66.0996 61.9247C65.5846 61.9247 65.1175 61.8381 64.6982 61.6649C64.2835 61.4872 63.9258 61.2388 63.625 60.9198C63.3288 60.6008 63.1009 60.2225 62.9414 59.785C62.7819 59.3475 62.7021 58.869 62.7021 58.3495V58.0624C62.7021 57.4608 62.791 56.9253 62.9688 56.4559C63.1465 55.982 63.388 55.5809 63.6934 55.2528C63.9987 54.9247 64.3451 54.6763 64.7324 54.5077C65.1198 54.3391 65.5208 54.2548 65.9355 54.2548C66.4642 54.2548 66.9199 54.3459 67.3027 54.5282C67.6901 54.7105 68.0068 54.9657 68.2529 55.2938C68.499 55.6174 68.6813 56.0002 68.7998 56.4423C68.9183 56.8798 68.9775 57.3583 68.9775 57.8778V58.4452H63.4541V57.413H67.7129V57.3173C67.6947 56.9891 67.6263 56.6701 67.5078 56.3602C67.3939 56.0503 67.2116 55.7951 66.9609 55.5946C66.7103 55.3941 66.3685 55.2938 65.9355 55.2938C65.6484 55.2938 65.3841 55.3553 65.1426 55.4784C64.901 55.5969 64.6937 55.7746 64.5205 56.0116C64.3473 56.2486 64.2129 56.538 64.1172 56.8798C64.0215 57.2216 63.9736 57.6158 63.9736 58.0624V58.3495C63.9736 58.7004 64.0215 59.0308 64.1172 59.3407C64.2174 59.646 64.361 59.9149 64.5479 60.1473C64.7393 60.3798 64.9694 60.5621 65.2383 60.6942C65.5117 60.8264 65.8216 60.8925 66.168 60.8925C66.6146 60.8925 66.9928 60.8013 67.3027 60.619C67.6126 60.4367 67.8838 60.1929 68.1162 59.8876L68.8818 60.496C68.7223 60.7375 68.5195 60.9677 68.2734 61.1864C68.0273 61.4052 67.7243 61.5829 67.3643 61.7196C67.0088 61.8563 66.5872 61.9247 66.0996 61.9247ZM75.1162 60.3524V51.288H76.3877V61.788H75.2256L75.1162 60.3524ZM70.1396 58.1718V58.0282C70.1396 57.4631 70.208 56.9504 70.3447 56.4901C70.486 56.0253 70.6842 55.6265 70.9395 55.2938C71.1992 54.9611 71.5068 54.7059 71.8623 54.5282C72.2223 54.3459 72.6234 54.2548 73.0654 54.2548C73.5303 54.2548 73.9359 54.3368 74.2822 54.5009C74.6331 54.6604 74.9294 54.8951 75.1709 55.205C75.417 55.5103 75.6107 55.8794 75.752 56.3124C75.8932 56.7453 75.9912 57.2352 76.0459 57.7821V58.411C75.9958 58.9533 75.8978 59.441 75.752 59.8739C75.6107 60.3068 75.417 60.676 75.1709 60.9813C74.9294 61.2867 74.6331 61.5214 74.2822 61.6854C73.9313 61.8449 73.5212 61.9247 73.0518 61.9247C72.6188 61.9247 72.2223 61.8313 71.8623 61.6444C71.5068 61.4576 71.1992 61.1955 70.9395 60.8583C70.6842 60.521 70.486 60.1246 70.3447 59.6688C70.208 59.2085 70.1396 58.7095 70.1396 58.1718ZM71.4111 58.0282V58.1718C71.4111 58.5409 71.4476 58.8872 71.5205 59.2108C71.598 59.5344 71.7165 59.8192 71.876 60.0653C72.0355 60.3114 72.2383 60.5051 72.4844 60.6464C72.7305 60.7831 73.0244 60.8514 73.3662 60.8514C73.7855 60.8514 74.1296 60.7626 74.3984 60.5848C74.6719 60.4071 74.8906 60.1724 75.0547 59.8807C75.2188 59.5891 75.3464 59.2723 75.4375 58.9305V57.2831C75.3828 57.0324 75.3031 56.7909 75.1982 56.5585C75.098 56.3215 74.9658 56.1119 74.8018 55.9296C74.6423 55.7427 74.444 55.5946 74.207 55.4852C73.9746 55.3759 73.6989 55.3212 73.3799 55.3212C73.0335 55.3212 72.735 55.3941 72.4844 55.5399C72.2383 55.6812 72.0355 55.8772 71.876 56.1278C71.7165 56.3739 71.598 56.661 71.5205 56.9891C71.4476 57.3127 71.4111 57.6591 71.4111 58.0282ZM82.7178 60.5233V56.7157C82.7178 56.424 82.6585 56.1711 82.54 55.9569C82.4261 55.7382 82.2529 55.5695 82.0205 55.451C81.7881 55.3326 81.501 55.2733 81.1592 55.2733C80.8402 55.2733 80.5599 55.328 80.3184 55.4374C80.0814 55.5468 79.8945 55.6903 79.7578 55.868C79.6257 56.0458 79.5596 56.2372 79.5596 56.4423H78.2949C78.2949 56.1779 78.3633 55.9159 78.5 55.6561C78.6367 55.3964 78.8327 55.1617 79.0879 54.952C79.3477 54.7378 79.6576 54.5692 80.0176 54.4462C80.3822 54.3186 80.7878 54.2548 81.2344 54.2548C81.7721 54.2548 82.2461 54.3459 82.6562 54.5282C83.071 54.7105 83.3945 54.9862 83.627 55.3553C83.8639 55.7199 83.9824 56.1779 83.9824 56.7294V60.1747C83.9824 60.4208 84.0029 60.6828 84.0439 60.9608C84.0895 61.2388 84.1556 61.4781 84.2422 61.6786V61.788H82.9229C82.859 61.6421 82.8089 61.4484 82.7725 61.2069C82.736 60.9608 82.7178 60.733 82.7178 60.5233ZM82.9365 57.3036L82.9502 58.1923H81.6719C81.3118 58.1923 80.9906 58.2219 80.708 58.2811C80.4255 58.3358 80.1885 58.4201 79.9971 58.5341C79.8057 58.648 79.6598 58.7915 79.5596 58.9647C79.4593 59.1333 79.4092 59.3316 79.4092 59.5594C79.4092 59.7919 79.4616 60.0038 79.5664 60.1952C79.6712 60.3866 79.8285 60.5393 80.0381 60.6532C80.2523 60.7626 80.5143 60.8173 80.8242 60.8173C81.2116 60.8173 81.5534 60.7352 81.8496 60.5712C82.1458 60.4071 82.3805 60.2066 82.5537 59.9696C82.7314 59.7326 82.8271 59.5025 82.8408 59.2792L83.3809 59.8876C83.349 60.079 83.2624 60.2909 83.1211 60.5233C82.9798 60.7557 82.7907 60.979 82.5537 61.1932C82.3213 61.4029 82.0433 61.5783 81.7197 61.7196C81.4007 61.8563 81.0407 61.9247 80.6396 61.9247C80.1383 61.9247 79.6986 61.8267 79.3203 61.6307C78.9466 61.4348 78.6549 61.1727 78.4453 60.8446C78.2402 60.5119 78.1377 60.1405 78.1377 59.7303C78.1377 59.3339 78.2152 58.9852 78.3701 58.6844C78.5251 58.3791 78.7484 58.1262 79.04 57.9257C79.3317 57.7206 79.6826 57.5656 80.0928 57.4608C80.5029 57.356 80.9609 57.3036 81.4668 57.3036H82.9365ZM87.2363 55.9706V61.788H85.9717V54.3915H87.168L87.2363 55.9706ZM86.9355 57.8094L86.4092 57.7889C86.4137 57.2831 86.4889 56.816 86.6348 56.3876C86.7806 55.9546 86.9857 55.5787 87.25 55.2596C87.5143 54.9406 87.8288 54.6945 88.1934 54.5214C88.5625 54.3436 88.9704 54.2548 89.417 54.2548C89.7816 54.2548 90.1097 54.3049 90.4014 54.4052C90.693 54.5009 90.9414 54.6558 91.1465 54.87C91.3561 55.0842 91.5156 55.3622 91.625 55.704C91.7344 56.0412 91.7891 56.4537 91.7891 56.9413V61.788H90.5176V56.9276C90.5176 56.5402 90.4606 56.2303 90.3467 55.9979C90.2327 55.7609 90.0664 55.59 89.8477 55.4852C89.6289 55.3759 89.36 55.3212 89.041 55.3212C88.7266 55.3212 88.4395 55.3872 88.1797 55.5194C87.9245 55.6516 87.7035 55.8339 87.5166 56.0663C87.3343 56.2987 87.1908 56.5653 87.0859 56.8661C86.9857 57.1623 86.9355 57.4768 86.9355 57.8094Z" fill="white"/>
</svg>
