<svg width="147" height="81" viewBox="0 0 147 81" fill="none" xmlns="http://www.w3.org/2000/svg">
<rect x="1" y="0.787964" width="145.5" height="79" rx="3.5" stroke="white"/>
<path d="M80.4793 17.788L78.797 18.663L83.0028 22.4546H76.2735V20.7046H73.75V22.4546H58.609C56.7417 22.4546 55.2444 23.493 55.2444 24.788V28.288H58.609C58.609 29.2162 59.1408 30.1065 60.0873 30.7628C61.0338 31.4192 62.3175 31.788 63.656 31.788C64.9946 31.788 66.2783 31.4192 67.2248 30.7628C68.1713 30.1065 68.703 29.2162 68.703 28.288H78.797C78.797 29.2162 79.3287 30.1065 80.2752 30.7628C81.2217 31.4192 82.5054 31.788 83.8439 31.788C85.1825 31.788 86.4662 31.4192 87.4127 30.7628C88.3592 30.1065 88.8909 29.2162 88.8909 28.288H92.2556V24.788C92.2556 23.493 90.7583 22.4546 88.8909 22.4546H85.5263L80.4793 17.788ZM63.656 26.538C64.3253 26.538 64.9672 26.7223 65.4404 27.0505C65.9136 27.3787 66.1795 27.8238 66.1795 28.288C66.1795 28.7521 65.9136 29.1972 65.4404 29.5254C64.9672 29.8536 64.3253 30.038 63.656 30.038C62.9867 30.038 62.3449 29.8536 61.8716 29.5254C61.3984 29.1972 61.1325 28.7521 61.1325 28.288C61.1325 27.8238 61.3984 27.3787 61.8716 27.0505C62.3449 26.7223 62.9867 26.538 63.656 26.538ZM83.8439 26.538C84.5132 26.538 85.1551 26.7223 85.6283 27.0505C86.1016 27.3787 86.3674 27.8238 86.3674 28.288C86.3674 28.7521 86.1016 29.1972 85.6283 29.5254C85.1551 29.8536 84.5132 30.038 83.8439 30.038C83.1747 30.038 82.5328 29.8536 82.0596 29.5254C81.5863 29.1972 81.3205 28.7521 81.3205 28.288C81.3205 27.8238 81.5863 27.3787 82.0596 27.0505C82.5328 26.7223 83.1747 26.538 83.8439 26.538Z" fill="#FBA403"/>
<path d="M47.8965 60.7147V61.788H42.9199V60.7147H47.8965ZM43.1797 51.8348V61.788H41.8604V51.8348H43.1797ZM53.4404 60.079V54.3915H54.7119V61.788H53.502L53.4404 60.079ZM53.6797 58.5204L54.2061 58.5067C54.2061 58.9989 54.1536 59.4546 54.0488 59.8739C53.9486 60.2886 53.7845 60.6486 53.5566 60.954C53.3288 61.2593 53.0303 61.4986 52.6611 61.6718C52.292 61.8404 51.8431 61.9247 51.3145 61.9247C50.9544 61.9247 50.624 61.8723 50.3232 61.7675C50.027 61.6626 49.7718 61.5009 49.5576 61.2821C49.3434 61.0634 49.1771 60.7785 49.0586 60.4276C48.9447 60.0767 48.8877 59.6552 48.8877 59.163V54.3915H50.1523V59.1766C50.1523 59.5093 50.1888 59.785 50.2617 60.0038C50.3392 60.218 50.4417 60.3889 50.5693 60.5165C50.7015 60.6395 50.8473 60.7261 51.0068 60.7762C51.1709 60.8264 51.3395 60.8514 51.5127 60.8514C52.0505 60.8514 52.4766 60.7489 52.791 60.5438C53.1055 60.3342 53.3311 60.0539 53.4678 59.703C53.609 59.3475 53.6797 58.9533 53.6797 58.5204ZM57.4941 54.3915L59.1143 57.0848L60.7549 54.3915H62.2383L59.8184 58.0419L62.3135 61.788H60.8506L59.1416 59.0126L57.4326 61.788H55.9629L58.4512 58.0419L56.0381 54.3915H57.4941ZM68.1104 60.079V54.3915H69.3818V61.788H68.1719L68.1104 60.079ZM68.3496 58.5204L68.876 58.5067C68.876 58.9989 68.8236 59.4546 68.7188 59.8739C68.6185 60.2886 68.4544 60.6486 68.2266 60.954C67.9987 61.2593 67.7002 61.4986 67.3311 61.6718C66.9619 61.8404 66.513 61.9247 65.9844 61.9247C65.6243 61.9247 65.2939 61.8723 64.9932 61.7675C64.6969 61.6626 64.4417 61.5009 64.2275 61.2821C64.0133 61.0634 63.847 60.7785 63.7285 60.4276C63.6146 60.0767 63.5576 59.6552 63.5576 59.163V54.3915H64.8223V59.1766C64.8223 59.5093 64.8587 59.785 64.9316 60.0038C65.0091 60.218 65.1117 60.3889 65.2393 60.5165C65.3714 60.6395 65.5173 60.7261 65.6768 60.7762C65.8408 60.8264 66.0094 60.8514 66.1826 60.8514C66.7204 60.8514 67.1465 60.7489 67.4609 60.5438C67.7754 60.3342 68.001 60.0539 68.1377 59.703C68.279 59.3475 68.3496 58.9533 68.3496 58.5204ZM72.5742 55.5536V61.788H71.3096V54.3915H72.54L72.5742 55.5536ZM74.8848 54.3505L74.8779 55.5262C74.7731 55.5035 74.6729 55.4898 74.5771 55.4852C74.486 55.4761 74.3812 55.4716 74.2627 55.4716C73.971 55.4716 73.7135 55.5171 73.4902 55.6083C73.2669 55.6994 73.0778 55.827 72.9229 55.9911C72.7679 56.1552 72.6449 56.3511 72.5537 56.579C72.4671 56.8023 72.4102 57.0484 72.3828 57.3173L72.0273 57.5223C72.0273 57.0757 72.0706 56.6565 72.1572 56.2645C72.2484 55.8726 72.3874 55.5262 72.5742 55.2255C72.7611 54.9201 72.998 54.6831 73.2852 54.5145C73.5768 54.3413 73.9232 54.2548 74.3242 54.2548C74.4154 54.2548 74.5202 54.2662 74.6387 54.2889C74.7572 54.3072 74.8392 54.3277 74.8848 54.3505ZM78.2549 61.0223L80.3125 54.3915H81.666L78.6992 62.9296C78.6309 63.1119 78.5397 63.3078 78.4258 63.5175C78.3164 63.7316 78.1751 63.9344 78.002 64.1259C77.8288 64.3173 77.6191 64.4722 77.373 64.5907C77.1315 64.7137 76.8421 64.7753 76.5049 64.7753C76.4046 64.7753 76.277 64.7616 76.1221 64.7343C75.9671 64.7069 75.8577 64.6841 75.7939 64.6659L75.7871 63.6405C75.8236 63.6451 75.8805 63.6496 75.958 63.6542C76.04 63.6633 76.097 63.6678 76.1289 63.6678C76.416 63.6678 76.6598 63.6291 76.8604 63.5516C77.0609 63.4787 77.2295 63.3534 77.3662 63.1757C77.5075 63.0025 77.6283 62.7632 77.7285 62.4579L78.2549 61.0223ZM76.7441 54.3915L78.665 60.1337L78.9932 61.4667L78.084 61.9315L75.3633 54.3915H76.7441ZM92.4805 58.6229H93.793C93.7246 59.2518 93.5446 59.8147 93.2529 60.3114C92.9613 60.8081 92.5488 61.2024 92.0156 61.494C91.4824 61.7811 90.8171 61.9247 90.0195 61.9247C89.4362 61.9247 88.9053 61.8153 88.4268 61.5966C87.9528 61.3778 87.5449 61.0679 87.2031 60.6669C86.8613 60.2613 86.597 59.7759 86.4102 59.2108C86.2279 58.6412 86.1367 58.0077 86.1367 57.3104V56.3192C86.1367 55.6219 86.2279 54.9908 86.4102 54.4257C86.597 53.856 86.8636 53.3684 87.21 52.9628C87.5609 52.5572 87.9824 52.245 88.4746 52.0262C88.9668 51.8075 89.5205 51.6981 90.1357 51.6981C90.8877 51.6981 91.5234 51.8394 92.043 52.1219C92.5625 52.4045 92.9658 52.7964 93.2529 53.2977C93.5446 53.7945 93.7246 54.371 93.793 55.0272H92.4805C92.4167 54.5624 92.2982 54.1636 92.125 53.8309C91.9518 53.4937 91.7057 53.2339 91.3867 53.0516C91.0677 52.8693 90.6507 52.7782 90.1357 52.7782C89.6937 52.7782 89.304 52.8625 88.9668 53.0311C88.6341 53.1997 88.3538 53.439 88.126 53.7489C87.9027 54.0588 87.734 54.4302 87.6201 54.8632C87.5062 55.2961 87.4492 55.7769 87.4492 56.3055V57.3104C87.4492 57.7981 87.4993 58.2561 87.5996 58.6844C87.7044 59.1128 87.8617 59.4888 88.0713 59.8124C88.2809 60.1359 88.5475 60.3912 88.8711 60.578C89.1947 60.7603 89.5775 60.8514 90.0195 60.8514C90.5801 60.8514 91.0267 60.7626 91.3594 60.5848C91.6921 60.4071 91.9427 60.1519 92.1113 59.8192C92.2845 59.4865 92.4076 59.0878 92.4805 58.6229ZM99.7607 60.5233V56.7157C99.7607 56.424 99.7015 56.1711 99.583 55.9569C99.4691 55.7382 99.2959 55.5695 99.0635 55.451C98.8311 55.3326 98.5439 55.2733 98.2021 55.2733C97.8831 55.2733 97.6029 55.328 97.3613 55.4374C97.1243 55.5468 96.9375 55.6903 96.8008 55.868C96.6686 56.0458 96.6025 56.2372 96.6025 56.4423H95.3379C95.3379 56.1779 95.4062 55.9159 95.543 55.6561C95.6797 55.3964 95.8757 55.1617 96.1309 54.952C96.3906 54.7378 96.7005 54.5692 97.0605 54.4462C97.4251 54.3186 97.8307 54.2548 98.2773 54.2548C98.8151 54.2548 99.2891 54.3459 99.6992 54.5282C100.114 54.7105 100.438 54.9862 100.67 55.3553C100.907 55.7199 101.025 56.1779 101.025 56.7294V60.1747C101.025 60.4208 101.046 60.6828 101.087 60.9608C101.132 61.2388 101.199 61.4781 101.285 61.6786V61.788H99.9658C99.902 61.6421 99.8519 61.4484 99.8154 61.2069C99.779 60.9608 99.7607 60.733 99.7607 60.5233ZM99.9795 57.3036L99.9932 58.1923H98.7148C98.3548 58.1923 98.0335 58.2219 97.751 58.2811C97.4684 58.3358 97.2314 58.4201 97.04 58.5341C96.8486 58.648 96.7028 58.7915 96.6025 58.9647C96.5023 59.1333 96.4521 59.3316 96.4521 59.5594C96.4521 59.7919 96.5046 60.0038 96.6094 60.1952C96.7142 60.3866 96.8714 60.5393 97.0811 60.6532C97.2952 60.7626 97.5573 60.8173 97.8672 60.8173C98.2546 60.8173 98.5964 60.7352 98.8926 60.5712C99.1888 60.4071 99.4235 60.2066 99.5967 59.9696C99.7744 59.7326 99.8701 59.5025 99.8838 59.2792L100.424 59.8876C100.392 60.079 100.305 60.2909 100.164 60.5233C100.023 60.7557 99.8337 60.979 99.5967 61.1932C99.3643 61.4029 99.0863 61.5783 98.7627 61.7196C98.4437 61.8563 98.0837 61.9247 97.6826 61.9247C97.1813 61.9247 96.7415 61.8267 96.3633 61.6307C95.9896 61.4348 95.6979 61.1727 95.4883 60.8446C95.2832 60.5119 95.1807 60.1405 95.1807 59.7303C95.1807 59.3339 95.2581 58.9852 95.4131 58.6844C95.568 58.3791 95.7913 58.1262 96.083 57.9257C96.3747 57.7206 96.7256 57.5656 97.1357 57.4608C97.5459 57.356 98.0039 57.3036 98.5098 57.3036H99.9795ZM104.279 55.5536V61.788H103.015V54.3915H104.245L104.279 55.5536ZM106.59 54.3505L106.583 55.5262C106.478 55.5035 106.378 55.4898 106.282 55.4852C106.191 55.4761 106.086 55.4716 105.968 55.4716C105.676 55.4716 105.419 55.5171 105.195 55.6083C104.972 55.6994 104.783 55.827 104.628 55.9911C104.473 56.1552 104.35 56.3511 104.259 56.579C104.172 56.8023 104.115 57.0484 104.088 57.3173L103.732 57.5223C103.732 57.0757 103.776 56.6565 103.862 56.2645C103.953 55.8726 104.092 55.5262 104.279 55.2255C104.466 54.9201 104.703 54.6831 104.99 54.5145C105.282 54.3413 105.628 54.2548 106.029 54.2548C106.12 54.2548 106.225 54.2662 106.344 54.2889C106.462 54.3072 106.544 54.3277 106.59 54.3505Z" fill="white"/>
</svg>
