<svg width="147" height="81" viewBox="0 0 147 81" fill="none" xmlns="http://www.w3.org/2000/svg">
<rect x="1" y="0.787964" width="145.5" height="79" rx="3.5" stroke="white"/>
<path d="M57.8266 18.9547C55.8627 18.9547 54.2881 19.993 54.2881 21.288V30.6214H57.8266C57.8266 31.5496 58.3859 32.4399 59.3813 33.0963C60.3767 33.7526 61.7267 34.1214 63.1345 34.1214C64.5422 34.1214 65.8922 33.7526 66.8877 33.0963C67.8831 32.4399 68.4423 31.5496 68.4423 30.6214H79.0579C79.0579 31.5496 79.6171 32.4399 80.6126 33.0963C81.608 33.7526 82.958 34.1214 84.3658 34.1214C85.7735 34.1214 87.1235 33.7526 88.119 33.0963C89.1144 32.4399 89.6736 31.5496 89.6736 30.6214H93.2121V25.9547C93.2121 24.6597 91.6375 23.6214 89.6736 23.6214L84.3658 18.9547H57.8266ZM57.8266 20.7047H64.9037V23.6214H57.8266V20.7047ZM68.4423 20.7047H75.5194V23.6214H68.4423V20.7047ZM79.0579 20.7047H83.4811L86.9489 23.6214H79.0579V20.7047ZM63.1345 28.8714C63.8383 28.8714 64.5134 29.0558 65.0111 29.3839C65.5088 29.7121 65.7884 30.1573 65.7884 30.6214C65.7884 31.0855 65.5088 31.5306 65.0111 31.8588C64.5134 32.187 63.8383 32.3714 63.1345 32.3714C62.4306 32.3714 61.7556 32.187 61.2579 31.8588C60.7602 31.5306 60.4805 31.0855 60.4805 30.6214C60.4805 30.1573 60.7602 29.7121 61.2579 29.3839C61.7556 29.0558 62.4306 28.8714 63.1345 28.8714ZM84.3658 28.8714C85.0696 28.8714 85.7446 29.0558 86.2424 29.3839C86.7401 29.7121 87.0197 30.1573 87.0197 30.6214C87.0197 31.0855 86.7401 31.5306 86.2424 31.8588C85.7446 32.187 85.0696 32.3714 84.3658 32.3714C83.6619 32.3714 82.9869 32.187 82.4892 31.8588C81.9915 31.5306 81.7118 31.0855 81.7118 30.6214C81.7118 30.1573 81.9915 29.7121 82.4892 29.3839C82.9869 29.0558 83.6619 28.8714 84.3658 28.8714Z" fill="#FBA403"/>
<path d="M52.1895 59.2723C52.1895 59.0399 52.153 58.8348 52.0801 58.6571C52.0117 58.4748 51.8887 58.3108 51.7109 58.1649C51.5378 58.0191 51.2962 57.8801 50.9863 57.7479C50.681 57.6158 50.2936 57.4813 49.8242 57.3446C49.332 57.1988 48.8877 57.037 48.4912 56.8593C48.0947 56.677 47.7552 56.4696 47.4727 56.2372C47.1901 56.0048 46.9736 55.7382 46.8232 55.4374C46.6729 55.1366 46.5977 54.7925 46.5977 54.4052C46.5977 54.0178 46.6774 53.66 46.8369 53.3319C46.9964 53.0038 47.2243 52.719 47.5205 52.4774C47.8213 52.2313 48.179 52.0399 48.5938 51.9032C49.0085 51.7665 49.471 51.6981 49.9814 51.6981C50.7288 51.6981 51.3623 51.8417 51.8818 52.1288C52.4059 52.4113 52.8047 52.7828 53.0781 53.243C53.3516 53.6988 53.4883 54.1864 53.4883 54.7059H52.1758C52.1758 54.3322 52.096 54.0018 51.9365 53.7147C51.777 53.4231 51.5355 53.1952 51.2119 53.0311C50.8883 52.8625 50.4782 52.7782 49.9814 52.7782C49.512 52.7782 49.1247 52.8488 48.8193 52.9901C48.514 53.1314 48.2861 53.3228 48.1357 53.5643C47.9899 53.8059 47.917 54.0816 47.917 54.3915C47.917 54.6011 47.9603 54.7925 48.0469 54.9657C48.138 55.1343 48.277 55.2915 48.4639 55.4374C48.6553 55.5832 48.8968 55.7177 49.1885 55.8407C49.4847 55.9637 49.8379 56.0822 50.248 56.1962C50.8132 56.3557 51.3008 56.5334 51.7109 56.7294C52.1211 56.9253 52.4583 57.1464 52.7227 57.3925C52.9915 57.634 53.1898 57.9097 53.3174 58.2196C53.4495 58.5249 53.5156 58.8713 53.5156 59.2587C53.5156 59.6643 53.4336 60.0311 53.2695 60.3593C53.1055 60.6874 52.8708 60.9677 52.5654 61.2001C52.2601 61.4325 51.8932 61.6125 51.4648 61.7401C51.041 61.8632 50.5671 61.9247 50.043 61.9247C49.5827 61.9247 49.1292 61.8609 48.6826 61.7333C48.2406 61.6057 47.8372 61.4143 47.4727 61.1591C47.1126 60.9038 46.8232 60.5894 46.6045 60.2157C46.3903 59.8374 46.2832 59.3999 46.2832 58.9032H47.5957C47.5957 59.245 47.6618 59.5389 47.7939 59.785C47.9261 60.0266 48.1061 60.2271 48.334 60.3866C48.5664 60.5461 48.8285 60.6646 49.1201 60.7421C49.4163 60.815 49.724 60.8514 50.043 60.8514C50.5033 60.8514 50.8929 60.7876 51.2119 60.66C51.5309 60.5324 51.7725 60.3501 51.9365 60.1132C52.1051 59.8762 52.1895 59.5959 52.1895 59.2723ZM60.8916 51.8348H62.2041V58.5682C62.2041 59.3156 62.0378 59.9377 61.7051 60.4344C61.3724 60.9312 60.9303 61.3049 60.3789 61.5555C59.832 61.8016 59.2373 61.9247 58.5947 61.9247C57.9202 61.9247 57.3096 61.8016 56.7627 61.5555C56.2204 61.3049 55.7897 60.9312 55.4707 60.4344C55.1562 59.9377 54.999 59.3156 54.999 58.5682V51.8348H56.3047V58.5682C56.3047 59.0878 56.4004 59.5162 56.5918 59.8534C56.7832 60.1906 57.0498 60.4413 57.3916 60.6053C57.738 60.7694 58.139 60.8514 58.5947 60.8514C59.055 60.8514 59.4561 60.7694 59.7979 60.6053C60.1442 60.4413 60.4131 60.1906 60.6045 59.8534C60.7959 59.5162 60.8916 59.0878 60.8916 58.5682V51.8348ZM67.4883 60.2772L70.4209 51.8348H71.8496L68.165 61.788H67.1465L67.4883 60.2772ZM64.7471 51.8348L67.6523 60.2772L68.0146 61.788H66.9961L63.3184 51.8348H64.7471ZM77.4004 51.8348L73.251 62.6425H72.1641L76.3203 51.8348H77.4004ZM82.1855 60.2772L85.1182 51.8348H86.5469L82.8623 61.788H81.8438L82.1855 60.2772ZM79.4443 51.8348L82.3496 60.2772L82.7119 61.788H81.6934L78.0156 51.8348H79.4443ZM91.7422 60.5233V56.7157C91.7422 56.424 91.6829 56.1711 91.5645 55.9569C91.4505 55.7382 91.2773 55.5695 91.0449 55.451C90.8125 55.3326 90.5254 55.2733 90.1836 55.2733C89.8646 55.2733 89.5843 55.328 89.3428 55.4374C89.1058 55.5468 88.9189 55.6903 88.7822 55.868C88.6501 56.0458 88.584 56.2372 88.584 56.4423H87.3193C87.3193 56.1779 87.3877 55.9159 87.5244 55.6561C87.6611 55.3964 87.8571 55.1617 88.1123 54.952C88.3721 54.7378 88.682 54.5692 89.042 54.4462C89.4066 54.3186 89.8122 54.2548 90.2588 54.2548C90.7965 54.2548 91.2705 54.3459 91.6807 54.5282C92.0954 54.7105 92.4189 54.9862 92.6514 55.3553C92.8883 55.7199 93.0068 56.1779 93.0068 56.7294V60.1747C93.0068 60.4208 93.0273 60.6828 93.0684 60.9608C93.1139 61.2388 93.18 61.4781 93.2666 61.6786V61.788H91.9473C91.8835 61.6421 91.8333 61.4484 91.7969 61.2069C91.7604 60.9608 91.7422 60.733 91.7422 60.5233ZM91.9609 57.3036L91.9746 58.1923H90.6963C90.3363 58.1923 90.015 58.2219 89.7324 58.2811C89.4499 58.3358 89.2129 58.4201 89.0215 58.5341C88.8301 58.648 88.6842 58.7915 88.584 58.9647C88.4837 59.1333 88.4336 59.3316 88.4336 59.5594C88.4336 59.7919 88.486 60.0038 88.5908 60.1952C88.6956 60.3866 88.8529 60.5393 89.0625 60.6532C89.2767 60.7626 89.5387 60.8173 89.8486 60.8173C90.236 60.8173 90.5778 60.7352 90.874 60.5712C91.1702 60.4071 91.4049 60.2066 91.5781 59.9696C91.7559 59.7326 91.8516 59.5025 91.8652 59.2792L92.4053 59.8876C92.3734 60.079 92.2868 60.2909 92.1455 60.5233C92.0042 60.7557 91.8151 60.979 91.5781 61.1932C91.3457 61.4029 91.0677 61.5783 90.7441 61.7196C90.4251 61.8563 90.0651 61.9247 89.6641 61.9247C89.1628 61.9247 88.723 61.8267 88.3447 61.6307C87.971 61.4348 87.6794 61.1727 87.4697 60.8446C87.2646 60.5119 87.1621 60.1405 87.1621 59.7303C87.1621 59.3339 87.2396 58.9852 87.3945 58.6844C87.5495 58.3791 87.7728 58.1262 88.0645 57.9257C88.3561 57.7206 88.707 57.5656 89.1172 57.4608C89.5273 57.356 89.9854 57.3036 90.4912 57.3036H91.9609ZM96.2607 55.9706V61.788H94.9961V54.3915H96.1924L96.2607 55.9706ZM95.96 57.8094L95.4336 57.7889C95.4382 57.2831 95.5133 56.816 95.6592 56.3876C95.805 55.9546 96.0101 55.5787 96.2744 55.2596C96.5387 54.9406 96.8532 54.6945 97.2178 54.5214C97.5869 54.3436 97.9948 54.2548 98.4414 54.2548C98.806 54.2548 99.1341 54.3049 99.4258 54.4052C99.7174 54.5009 99.9658 54.6558 100.171 54.87C100.381 55.0842 100.54 55.3622 100.649 55.704C100.759 56.0412 100.813 56.4537 100.813 56.9413V61.788H99.542V56.9276C99.542 56.5402 99.485 56.2303 99.3711 55.9979C99.2572 55.7609 99.0908 55.59 98.8721 55.4852C98.6533 55.3759 98.3844 55.3212 98.0654 55.3212C97.751 55.3212 97.4639 55.3872 97.2041 55.5194C96.9489 55.6516 96.7279 55.8339 96.541 56.0663C96.3587 56.2987 96.2152 56.5653 96.1104 56.8661C96.0101 57.1623 95.96 57.4768 95.96 57.8094Z" fill="white"/>
</svg>
