<svg width="147" height="81" viewBox="0 0 147 81" fill="none" xmlns="http://www.w3.org/2000/svg">
<rect x="0.5" y="0.787964" width="145.5" height="79" rx="3.5" stroke="white"/>
<path d="M73.25 20.7047H65.1123L60.2298 23.6214H58.6022C56.7957 23.6214 55.3472 24.6597 55.3472 25.9547V29.4547H58.8789C59.5787 30.8547 61.4178 31.788 63.4848 31.788C65.5518 31.788 67.3909 30.8547 68.0744 29.4547H78.4092C79.1091 30.8547 80.9482 31.788 83.0151 31.788C85.0821 31.788 86.9212 30.8547 87.6048 29.4547H91.1528V28.288C91.1528 26.993 89.4764 26.573 87.8977 25.9547L73.25 20.7047ZM62.2642 24.788L65.9261 22.4547H72.4362L78.9463 24.788H62.2642ZM63.4848 26.538C64.1323 26.538 64.7532 26.7224 65.2111 27.0506C65.6689 27.3788 65.9261 27.8239 65.9261 28.288C65.9261 28.7522 65.6689 29.1973 65.2111 29.5255C64.7532 29.8537 64.1323 30.038 63.4848 30.038C62.8373 30.038 62.2164 29.8537 61.7586 29.5255C61.3007 29.1973 61.0435 28.7522 61.0435 28.288C61.0435 27.8239 61.3007 27.3788 61.7586 27.0506C62.2164 26.7224 62.8373 26.538 63.4848 26.538ZM83.0151 26.538C83.6626 26.538 84.2836 26.7224 84.7414 27.0506C85.1992 27.3788 85.4564 27.8239 85.4564 28.288C85.4564 28.7522 85.1992 29.1973 84.7414 29.5255C84.2836 29.8537 83.6626 30.038 83.0151 30.038C82.3677 30.038 81.7467 29.8537 81.2889 29.5255C80.8311 29.1973 80.5739 28.7522 80.5739 28.288C80.5739 27.8239 80.8311 27.3788 81.2889 27.0506C81.7467 26.7224 82.3677 26.538 83.0151 26.538Z" fill="#FBA403"/>
<path d="M41.6953 59.2723C41.6953 59.0399 41.6589 58.8348 41.5859 58.6571C41.5176 58.4748 41.3945 58.3108 41.2168 58.1649C41.0436 58.0191 40.8021 57.8801 40.4922 57.7479C40.1868 57.6158 39.7995 57.4813 39.3301 57.3446C38.8379 57.1988 38.3936 57.037 37.9971 56.8593C37.6006 56.677 37.2611 56.4696 36.9785 56.2372C36.696 56.0048 36.4795 55.7382 36.3291 55.4374C36.1787 55.1366 36.1035 54.7925 36.1035 54.4052C36.1035 54.0178 36.1833 53.66 36.3428 53.3319C36.5023 53.0038 36.7301 52.719 37.0264 52.4774C37.3271 52.2313 37.6849 52.0399 38.0996 51.9032C38.5143 51.7665 38.9769 51.6981 39.4873 51.6981C40.2347 51.6981 40.8682 51.8417 41.3877 52.1288C41.9118 52.4113 42.3105 52.7828 42.584 53.243C42.8574 53.6988 42.9941 54.1864 42.9941 54.7059H41.6816C41.6816 54.3322 41.6019 54.0018 41.4424 53.7147C41.2829 53.4231 41.0413 53.1952 40.7178 53.0311C40.3942 52.8625 39.984 52.7782 39.4873 52.7782C39.0179 52.7782 38.6305 52.8488 38.3252 52.9901C38.0199 53.1314 37.792 53.3228 37.6416 53.5643C37.4958 53.8059 37.4229 54.0816 37.4229 54.3915C37.4229 54.6011 37.4661 54.7925 37.5527 54.9657C37.6439 55.1343 37.7829 55.2915 37.9697 55.4374C38.1611 55.5832 38.4027 55.7177 38.6943 55.8407C38.9906 55.9637 39.3438 56.0822 39.7539 56.1962C40.319 56.3557 40.8066 56.5334 41.2168 56.7294C41.627 56.9253 41.9642 57.1464 42.2285 57.3925C42.4974 57.634 42.6956 57.9097 42.8232 58.2196C42.9554 58.5249 43.0215 58.8713 43.0215 59.2587C43.0215 59.6643 42.9395 60.0311 42.7754 60.3593C42.6113 60.6874 42.3766 60.9677 42.0713 61.2001C41.766 61.4325 41.3991 61.6125 40.9707 61.7401C40.5469 61.8632 40.0729 61.9247 39.5488 61.9247C39.0885 61.9247 38.6351 61.8609 38.1885 61.7333C37.7464 61.6057 37.3431 61.4143 36.9785 61.1591C36.6185 60.9038 36.3291 60.5894 36.1104 60.2157C35.8962 59.8374 35.7891 59.3999 35.7891 58.9032H37.1016C37.1016 59.245 37.1676 59.5389 37.2998 59.785C37.432 60.0266 37.612 60.2271 37.8398 60.3866C38.0723 60.5461 38.3343 60.6646 38.626 60.7421C38.9222 60.815 39.2298 60.8514 39.5488 60.8514C40.0091 60.8514 40.3988 60.7876 40.7178 60.66C41.0368 60.5324 41.2783 60.3501 41.4424 60.1132C41.611 59.8762 41.6953 59.5959 41.6953 59.2723ZM47.5811 61.9247C47.0661 61.9247 46.599 61.8381 46.1797 61.6649C45.765 61.4872 45.4072 61.2388 45.1064 60.9198C44.8102 60.6008 44.5824 60.2225 44.4229 59.785C44.2633 59.3475 44.1836 58.869 44.1836 58.3495V58.0624C44.1836 57.4608 44.2725 56.9253 44.4502 56.4559C44.6279 55.982 44.8695 55.5809 45.1748 55.2528C45.4801 54.9247 45.8265 54.6763 46.2139 54.5077C46.6012 54.3391 47.0023 54.2548 47.417 54.2548C47.9456 54.2548 48.4014 54.3459 48.7842 54.5282C49.1715 54.7105 49.4883 54.9657 49.7344 55.2938C49.9805 55.6174 50.1628 56.0002 50.2812 56.4423C50.3997 56.8798 50.459 57.3583 50.459 57.8778V58.4452H44.9355V57.413H49.1943V57.3173C49.1761 56.9891 49.1077 56.6701 48.9893 56.3602C48.8753 56.0503 48.693 55.7951 48.4424 55.5946C48.1917 55.3941 47.8499 55.2938 47.417 55.2938C47.1299 55.2938 46.8656 55.3553 46.624 55.4784C46.3825 55.5969 46.1751 55.7746 46.002 56.0116C45.8288 56.2486 45.6943 56.538 45.5986 56.8798C45.5029 57.2216 45.4551 57.6158 45.4551 58.0624V58.3495C45.4551 58.7004 45.5029 59.0308 45.5986 59.3407C45.6989 59.646 45.8424 59.9149 46.0293 60.1473C46.2207 60.3798 46.4508 60.5621 46.7197 60.6942C46.9932 60.8264 47.3031 60.8925 47.6494 60.8925C48.096 60.8925 48.4743 60.8013 48.7842 60.619C49.0941 60.4367 49.3652 60.1929 49.5977 59.8876L50.3633 60.496C50.2038 60.7375 50.001 60.9677 49.7549 61.1864C49.5088 61.4052 49.2057 61.5829 48.8457 61.7196C48.4902 61.8563 48.0687 61.9247 47.5811 61.9247ZM53.1934 55.8612V61.788H51.9219V54.3915H53.125L53.1934 55.8612ZM52.9336 57.8094L52.3457 57.7889C52.3503 57.2831 52.4163 56.816 52.5439 56.3876C52.6715 55.9546 52.8607 55.5787 53.1113 55.2596C53.362 54.9406 53.6742 54.6945 54.0479 54.5214C54.4215 54.3436 54.8545 54.2548 55.3467 54.2548C55.693 54.2548 56.012 54.3049 56.3037 54.4052C56.5954 54.5009 56.8483 54.6535 57.0625 54.8632C57.2767 55.0728 57.443 55.3417 57.5615 55.6698C57.68 55.9979 57.7393 56.3944 57.7393 56.8593V61.788H56.4746V56.9208C56.4746 56.5334 56.4085 56.2235 56.2764 55.9911C56.1488 55.7587 55.9665 55.59 55.7295 55.4852C55.4925 55.3759 55.2145 55.3212 54.8955 55.3212C54.5218 55.3212 54.2096 55.3872 53.959 55.5194C53.7083 55.6516 53.5078 55.8339 53.3574 56.0663C53.207 56.2987 53.0977 56.5653 53.0293 56.8661C52.9655 57.1623 52.9336 57.4768 52.9336 57.8094ZM57.7256 57.1122L56.8779 57.3719C56.8825 56.9663 56.9486 56.5767 57.0762 56.203C57.2083 55.8293 57.3975 55.4966 57.6436 55.205C57.8942 54.9133 58.2018 54.6831 58.5664 54.5145C58.931 54.3413 59.348 54.2548 59.8174 54.2548C60.2139 54.2548 60.5648 54.3072 60.8701 54.412C61.18 54.5168 61.4398 54.6786 61.6494 54.8973C61.8636 55.1115 62.0254 55.3872 62.1348 55.7245C62.2441 56.0617 62.2988 56.4628 62.2988 56.9276V61.788H61.0273V56.9139C61.0273 56.4992 60.9613 56.1779 60.8291 55.9501C60.7015 55.7177 60.5192 55.5559 60.2822 55.4647C60.0498 55.369 59.7718 55.3212 59.4482 55.3212C59.1702 55.3212 58.9242 55.369 58.71 55.4647C58.4958 55.5604 58.3158 55.6926 58.1699 55.8612C58.0241 56.0253 57.9124 56.2144 57.835 56.4286C57.762 56.6428 57.7256 56.8706 57.7256 57.1122ZM65.5869 54.3915V61.788H64.3154V54.3915H65.5869ZM64.2197 52.4296C64.2197 52.2245 64.2812 52.0513 64.4043 51.91C64.5319 51.7688 64.7188 51.6981 64.9648 51.6981C65.2064 51.6981 65.391 51.7688 65.5186 51.91C65.6507 52.0513 65.7168 52.2245 65.7168 52.4296C65.7168 52.6255 65.6507 52.7941 65.5186 52.9354C65.391 53.0721 65.2064 53.1405 64.9648 53.1405C64.7188 53.1405 64.5319 53.0721 64.4043 52.9354C64.2812 52.7941 64.2197 52.6255 64.2197 52.4296ZM77.3174 60.7147V61.788H72.3408V60.7147H77.3174ZM72.6006 51.8348V61.788H71.2812V51.8348H72.6006ZM82.8613 60.079V54.3915H84.1328V61.788H82.9229L82.8613 60.079ZM83.1006 58.5204L83.627 58.5067C83.627 58.9989 83.5745 59.4546 83.4697 59.8739C83.3695 60.2886 83.2054 60.6486 82.9775 60.954C82.7497 61.2593 82.4512 61.4986 82.082 61.6718C81.7129 61.8404 81.264 61.9247 80.7354 61.9247C80.3753 61.9247 80.0449 61.8723 79.7441 61.7675C79.4479 61.6626 79.1927 61.5009 78.9785 61.2821C78.7643 61.0634 78.598 60.7785 78.4795 60.4276C78.3656 60.0767 78.3086 59.6552 78.3086 59.163V54.3915H79.5732V59.1766C79.5732 59.5093 79.6097 59.785 79.6826 60.0038C79.7601 60.218 79.8626 60.3889 79.9902 60.5165C80.1224 60.6395 80.2682 60.7261 80.4277 60.7762C80.5918 60.8264 80.7604 60.8514 80.9336 60.8514C81.4714 60.8514 81.8975 60.7489 82.2119 60.5438C82.5264 60.3342 82.752 60.0539 82.8887 59.703C83.0299 59.3475 83.1006 58.9533 83.1006 58.5204ZM86.915 54.3915L88.5352 57.0848L90.1758 54.3915H91.6592L89.2393 58.0419L91.7344 61.788H90.2715L88.5625 59.0126L86.8535 61.788H85.3838L87.8721 58.0419L85.459 54.3915H86.915ZM97.5312 60.079V54.3915H98.8027V61.788H97.5928L97.5312 60.079ZM97.7705 58.5204L98.2969 58.5067C98.2969 58.9989 98.2445 59.4546 98.1396 59.8739C98.0394 60.2886 97.8753 60.6486 97.6475 60.954C97.4196 61.2593 97.1211 61.4986 96.752 61.6718C96.3828 61.8404 95.9339 61.9247 95.4053 61.9247C95.0452 61.9247 94.7148 61.8723 94.4141 61.7675C94.1178 61.6626 93.8626 61.5009 93.6484 61.2821C93.4342 61.0634 93.2679 60.7785 93.1494 60.4276C93.0355 60.0767 92.9785 59.6552 92.9785 59.163V54.3915H94.2432V59.1766C94.2432 59.5093 94.2796 59.785 94.3525 60.0038C94.43 60.218 94.5326 60.3889 94.6602 60.5165C94.7923 60.6395 94.9382 60.7261 95.0977 60.7762C95.2617 60.8264 95.4303 60.8514 95.6035 60.8514C96.1413 60.8514 96.5674 60.7489 96.8818 60.5438C97.1963 60.3342 97.4219 60.0539 97.5586 59.703C97.6999 59.3475 97.7705 58.9533 97.7705 58.5204ZM101.995 55.5536V61.788H100.73V54.3915H101.961L101.995 55.5536ZM104.306 54.3505L104.299 55.5262C104.194 55.5035 104.094 55.4898 103.998 55.4852C103.907 55.4761 103.802 55.4716 103.684 55.4716C103.392 55.4716 103.134 55.5171 102.911 55.6083C102.688 55.6994 102.499 55.827 102.344 55.9911C102.189 56.1552 102.066 56.3511 101.975 56.579C101.888 56.8023 101.831 57.0484 101.804 57.3173L101.448 57.5223C101.448 57.0757 101.492 56.6565 101.578 56.2645C101.669 55.8726 101.808 55.5262 101.995 55.2255C102.182 54.9201 102.419 54.6831 102.706 54.5145C102.998 54.3413 103.344 54.2548 103.745 54.2548C103.836 54.2548 103.941 54.2662 104.06 54.2889C104.178 54.3072 104.26 54.3277 104.306 54.3505ZM107.676 61.0223L109.733 54.3915H111.087L108.12 62.9296C108.052 63.1119 107.961 63.3078 107.847 63.5175C107.737 63.7316 107.596 63.9344 107.423 64.1259C107.25 64.3173 107.04 64.4722 106.794 64.5907C106.552 64.7137 106.263 64.7753 105.926 64.7753C105.826 64.7753 105.698 64.7616 105.543 64.7343C105.388 64.7069 105.279 64.6841 105.215 64.6659L105.208 63.6405C105.244 63.6451 105.301 63.6496 105.379 63.6542C105.461 63.6633 105.518 63.6678 105.55 63.6678C105.837 63.6678 106.081 63.6291 106.281 63.5516C106.482 63.4787 106.65 63.3534 106.787 63.1757C106.928 63.0025 107.049 62.7632 107.149 62.4579L107.676 61.0223ZM106.165 54.3915L108.086 60.1337L108.414 61.4667L107.505 61.9315L104.784 54.3915H106.165Z" fill="white"/>
</svg>
